<svg width="33" height="42" viewBox="0 0 33 42" fill="none" xmlns="http://www.w3.org/2000/svg">
<path fill-rule="evenodd" clip-rule="evenodd" d="M15.4688 0C16.2454 0 16.875 0.6296 16.875 1.40625V7.03125C19.9816 7.03125 22.5 9.54965 22.5 12.6562V16.875C22.5 22.3116 18.0928 26.7188 12.6562 26.7188H12.6197L12.6103 26.8443C12.4451 28.9931 12.5715 30.5707 12.9489 31.5404C13.5597 33.1098 14.8722 33.3936 18.0025 32.7909L18.8396 32.6195L20.4111 32.2859C22.3989 31.8811 23.2844 31.8078 24.3691 32.006C27.2379 32.5304 28.9571 34.1223 31.307 37.7225L32.0766 38.9331L32.3547 39.3774C32.7669 40.0356 32.5676 40.9034 31.9094 41.3157C31.2982 41.6985 30.5063 41.554 30.0662 41.0044L29.9711 40.8704C29.987 40.8957 29.5735 40.2347 29.4591 40.0526L28.9775 39.2993C27.0272 36.3068 25.7493 35.1174 23.8634 34.7727C23.234 34.6577 22.5156 34.7278 20.8717 35.0631L18.9212 35.4758C14.3207 36.4164 11.6448 35.9441 10.3279 32.5605C9.77754 31.1464 9.61455 29.2112 9.79924 26.7191L9.84375 26.7188C4.4072 26.7188 0 22.3116 0 16.875V12.6562C0 9.54965 2.5184 7.03125 5.625 7.03125V1.40625C5.625 0.6296 6.2546 0 7.03125 0C7.8079 0 8.4375 0.6296 8.4375 1.40625V7.03125H14.0625V1.40625C14.0625 0.6296 14.6921 0 15.4688 0Z" fill="white"/>
</svg>
