<svg width="36" height="44" viewBox="0 0 36 44" fill="none" xmlns="http://www.w3.org/2000/svg">
<path d="M17.007 34.5L14.403 33L17.8335 27H12L17.9895 16.5L20.595 18L17.169 24H23.004L17.007 34.5Z" fill="white"/>
<path d="M33 25.5C33 28.4667 32.1203 31.3668 30.4721 33.8336C28.8238 36.3003 26.4812 38.2229 23.7403 39.3582C20.9994 40.4935 17.9834 40.7906 15.0737 40.2118C12.1639 39.633 9.49119 38.2044 7.39341 36.1066C5.29562 34.0088 3.86701 31.3361 3.28823 28.4264C2.70945 25.5166 3.0065 22.5006 4.14182 19.7598C5.27713 17.0189 7.19972 14.6762 9.66646 13.028C12.1332 11.3797 15.0333 10.5 18 10.5H24V18L33 9L24 0V7.5H18C14.4399 7.5 10.9598 8.55568 7.99974 10.5335C5.03966 12.5114 2.73255 15.3226 1.37018 18.6117C0.00779915 21.9008 -0.348661 25.52 0.345873 29.0116C1.04041 32.5033 2.75474 35.7106 5.27209 38.2279C7.78943 40.7453 10.9967 42.4596 14.4884 43.1541C17.98 43.8487 21.5992 43.4922 24.8883 42.1298C28.1774 40.7675 30.9886 38.4604 32.9665 35.5003C34.9443 32.5402 36 29.0601 36 25.5H33Z" fill="white"/>
</svg>
